<?xml version="1.0" standalone="no"?><!DOCTYPE svg PUBLIC "-//W3C//DTD SVG 1.1//EN" "http://www.w3.org/Graphics/SVG/1.1/DTD/svg11.dtd"><svg t="1600928724326" class="icon" viewBox="0 0 1194 1024" version="1.1" xmlns="http://www.w3.org/2000/svg" p-id="2729" xmlns:xlink="http://www.w3.org/1999/xlink" width="233.203125" height="200"><defs><style type="text/css"></style></defs><path d="M1050.368 173.44C989.482667 76.714667 984.362667 28.288 942.208 28.288c-44.16 0-121.685333 49.237333-154.538667 145.152h-256.682666C498.474667 77.696 420.352 28.288 375.04 28.288c-44.885333 0-56.490667 55.978667-129.194667 168.533333a21.333333 21.333333 0 1 0 35.84 23.168C345.685333 120.832 351.36 70.954667 375.04 70.954667c20.821333 0 91.989333 42.282667 120.277333 130.346666l4.736 14.805334h318.549334l4.778666-14.72c28.586667-87.893333 99.498667-130.432 118.869334-130.432 22.144 0 22.528 44.970667 78.208 135.04l6.229333 10.112h97.237333c-79.018667 282.24-127.018667 444.672-143.189333 484.778666-13.568 33.664-38.4 48.042667-79.658667 45.098667-239.744-6.4-406.314667-6.4-501.12 0-76.117333 5.12-111.530667-16.512-131.114666-61.44a220.842667 220.842667 0 0 1-7.936-21.589333c-1.237333-3.968-5.546667-18.346667-6.570667-21.461334l-0.981333-3.072c-3.072-9.301333-10.666667-42.88-22.912-101.077333-7.552-35.669333-39.893333-191.872-38.741334-186.368l-3.413333-16.469333C152.661333 163.925333 133.12 77.909333 123.264 56.576 101.888 10.410667 62.549333 10.410667 26.624 51.498667a21.333333 21.333333 0 0 0 32.085333 28.117333c17.493333-19.968 18.944-19.968 25.813334-5.12 7.68 16.597333 28.288 107.306667 61.952 268.714667l3.413333 16.426666c-1.152-5.546667 31.189333 150.741333 38.741333 186.496 12.8 60.8 20.352 94.08 24.149334 105.642667l0.853333 2.602667 6.570667 21.504c3.072 9.642667 6.058667 17.749333 9.514666 25.728 26.752 61.397333 78.933333 93.269333 173.056 86.954666 93.141333-6.272 258.688-6.272 496.213334 0 58.154667 4.224 100.565333-20.352 121.301333-71.68 17.578667-43.648 68.010667-214.869333 152.277333-516.352l7.552-27.093333h-129.706666zM362.666667 1002.666667a85.333333 85.333333 0 1 1 0-170.666667 85.333333 85.333333 0 0 1 0 170.666667z m0-42.666667a42.666667 42.666667 0 1 0 0-85.333333 42.666667 42.666667 0 0 0 0 85.333333zM960 1002.666667a85.333333 85.333333 0 1 1 0-170.666667 85.333333 85.333333 0 0 1 0 170.666667z m0-42.666667a42.666667 42.666667 0 1 0 0-85.333333 42.666667 42.666667 0 0 0 0 85.333333z" fill="#ABEBEB" p-id="2730"></path><path d="M924.586667 145.365333l-25.344 55.338667a21.333333 21.333333 0 0 0 20.138666 30.208l16.298667-0.554667a21.333333 21.333333 0 0 0 17.962667-31.573333l-29.098667-53.418667zM416.426667 145.365333l25.344 55.338667a21.333333 21.333333 0 0 1-20.181334 30.208L405.333333 230.357333a21.333333 21.333333 0 0 1-18.005333-31.573333l29.098667-53.418667z" fill="#ABEBEB" p-id="2731"></path></svg>